<?xml version="1.0" encoding="utf-8"?>
<!-- Generator: Adobe Illustrator 16.0.0, SVG Export Plug-In . SVG Version: 6.00 Build 0)  -->
<!DOCTYPE svg PUBLIC "-//W3C//DTD SVG 1.1//EN" "http://www.w3.org/Graphics/SVG/1.1/DTD/svg11.dtd">
<svg version="1.1" id="Layer_1" xmlns="http://www.w3.org/2000/svg" xmlns:xlink="http://www.w3.org/1999/xlink" x="0px" y="0px"
	 width="115.045px" height="226.667px" viewBox="0 0 115.045 226.667" enable-background="new 0 0 115.045 226.667"
	 xml:space="preserve">
<path fill-rule="evenodd" clip-rule="evenodd" fill="#010101" d="M14.741,101.864c-0.029-0.262-0.179,0.139-0.409,0
	c0.118-0.55,0.147-1.098-0.102-1.514c0.179,0.085,0.296,0.242,0.51,0.304c0.371-1.578,0.078-3.824,0.705-5.154
	c-0.032-0.396-0.353,0.117-0.307-0.302c2.893-12.82-0.734-32.171,6.768-40.387c-0.107-0.268-0.123-0.622-0.102-1.013
	c0.323-0.753,1.098-1.06,1.007-2.217c2.754-3.445,5.04-7.347,8.178-10.403c-0.04-1.255,0.332-2.284,0.708-3.232
	c0.478-1.207,1.485-2.158,1.108-3.731c0.758-0.697,1.245-1.656,1.221-3.136c0.128-0.513,0.646-0.542,0.903-1.007
	c0.253-0.465,0.149-1.138,0.504-1.616c0.275-0.235,0.66-0.353,1.215-0.307c-0.163-0.529-0.473-1.266-0.307-1.814
	c0.024-0.486,0.176,0.174,0.505,0c0.919-2.177,0.329-5.865,2.527-6.768c0.793,0.179,0.913-0.024,1.21-0.502
	c2.957,0.494,4.209-1.576,6.567-2.019c1.319-1.811,4.524-1.993,7.671-2.625c2.599-0.521,4.304-1.888,6.665-2.121
	c1.971-0.195,3.179,1.05,4.744,1.813c1.33,0.66,2.708,0.633,3.937,1.018c1.287,0.396,3.141,1.963,4.444,2.724
	c4.359,2.554,9.332,5.342,10.197,11.001c0.272,0.406,0.871,0.478,1.117,0.911c-0.55,6.304,3.392,8.117,5.951,11.312
	c0.716,0.155,1.154,0.596,1.517,1.114c0.358,0.12,0.369,0.222,0.807,0.093c0.336,0.874,1.169,1.25,1.821,1.822
	c-0.561,0.422-0.956,0.996-1.517,1.413c0.486,0.145,0.246,1.031,0.299,1.616c-0.588,0.067-1.052,0.388-1.512,0.302
	c0.972,1.608-1.101,3.43-2.826,4.143c-1.827,0.748-4.258,0.687-6.058,0.604c-0.102-0.311-0.363-0.446-0.305-0.908
	c-2.164,0.899-5.251,0.878-6.667,2.521c1.394,2.815,3.376,5.04,3.542,9.09c3.461,2.553,1.993,10.048,5.849,12.214
	c-0.721,4.508,3.51,6.672,5.353,9.497c0.583,0.897,0.85,2.057,1.517,2.928c1.501,1.987,4.583,2.289,6.763,3.128
	c2.602,1.004,4.46,2.227,6.362,3.538c0.838,2.688,5.951,2.866,7.67,5.145c1.229,1.621,0.102,2.417-0.502,4.143
	c-0.71,2.017-0.235,4.42-2.628,4.642c-0.443,0.147,0-0.604-0.299-0.604c-1.485,0.102-2.431,1.883-4.044,0.908
	c-0.139-0.681,0.406-0.673,0.609-1.007c-0.614,0.056-1.646,0.566-2.222,1.007c-0.315-0.174-0.449-0.951-0.102-1.21
	c-4.931-2.916-12.895-2.794-20.7-2.831c-0.48-0.393-0.822-0.927-1.111-1.515c-1.88,0.2-2.922-0.44-4.444-0.601
	c-0.144-0.588-0.144-1.333-0.502-1.718c-1.613,0.353-3.002-0.171-3.029-1.717c-0.278,0.265-0.556-0.04-0.604-0.308
	c-1.447,0.774-1.506,3.967,0.401,4.244c-0.593,1.148-0.438,2.506,0.107,3.736c0.144,0.342,0.801,1.093,0.807,1.213
	c0,0.393-0.55,0.548-0.508,0.911c0.112,1.065,2.11,1.466,3.232,1.201c3.424,2.132,8.034,3.077,11.714,4.952
	c-0.39,0.377,0.096,0.988-0.299,1.312c-0.887,0.106-0.983-0.571-1.72-0.599c0.433,2.826,4.434,2.084,4.946,4.846
	c-0.224,0.274-0.833,0.182-1.212,0.296c-0.171,0.337,0.027,0.388,0,0.813c-0.961-0.089-1.993-0.903-2.826-0.2
	c0.732,1.116,2.585,1.645,2.826,2.924c-0.224,0.609-0.983,0.225-0.71,0.908c-1.469,0.229-3.632-0.691-4.241,0.505
	c0.764,0.893,2.168,1.13,2.324,2.626c-1.758-0.051-3.136,0.734-4.947,0.302c-0.24,0.878,0.71,0.574,0.908,1.018
	c-0.262,0.368-0.823,0.448-1.416,0.496c-0.299,0.3,0.326,0.438-0.096,0.606c-2.826-0.274-3.782-2.414-5.053-4.235
	c-3.547-0.358-4.594-3.208-8.782-2.928c-0.892,0.719,0.123,3.352-1.512,3.328c-0.096,1.706,0.315,5.099-0.304,6.763
	c-0.16,0.425-0.716,0.676-1.01,1.113c-1.517,2.286-1.004,5.933-0.203,8.684c-0.315,0.267-0.47-0.243-0.806,0
	c0.523,1.159-0.198,3.563,1.105,3.939c-0.267,1.082-0.63,2.938,0.609,3.229c-0.774,1.451,0,3.767-0.203,5.86
	c-0.123,0.177-0.192,0.409-0.406,0.505c-0.037,4.198-1.442,8.157-2.217,12.011c-0.299,1.499-0.363,4.001-1.314,4.444
	c0.748,3.353-0.668,6.64-1.106,9.394c-0.155,0.943-0.042,1.915-0.102,2.826c-0.315,4.557-1.917,8.435-2.628,12.622
	c2.147,3.467,6.944,4.298,10.908,5.959c-0.384,1.723-1.592,3.274-0.913,5.448c-0.663,0.348-1.304,0.711-2.42,0.604
	c-0.406-0.265-0.807-0.545-1.117-0.908c-3.258,0.822-8.551,2.086-11.713,0.304c-3.424,0.574-4.695-1.632-7.869-1.615
	c-0.627-0.588-0.382-2.044-1.316-2.324c1.058-2.599-1.867-3.133-1.413-5.448c-0.147-0.328-0.489-0.454-1.007-0.406
	c0.748-2.209,0.026-5.427,0.601-7.673c-0.136-0.534-0.715-0.625-1.108-0.911c-0.133-0.569,0.398-0.47,0.406-0.902
	c-0.665-0.152-1.191-0.436-1.92-0.511c0-0.571,0-1.143,0-1.717c-3.416,0.053-2.008,5.804-3.229,8.378
	c0.219,2.527,1.295,6.293-0.203,8.187c0.638,0.305-0.155,1.477,0.801,1.509c-0.396,0.94-1.595,1.835-0.905,3.234
	c-0.93,0.519-0.871,2.024-2.017,2.321c1.028,4.64,8.058,4.458,10.499,8.079c1.103,1.641,2.54,5.057,0.406,6.867
	c-1.752-0.676-3.17-1.68-5.457-1.818c-0.195,2.4-3.44,1.746-5.556,1.514c-0.718-1.164-2.468-3.29-3.934-2.12
	c-0.454-0.457-0.98-0.722-1.515-0.807c-1.298-0.214-2.759,0.608-3.731,0.502c-1.92-0.206-2.017-2.9-4.041-3.133
	c0.227-1.148-0.187-2.041-0.911-2.521c0.345-1.301-0.149-2.506-0.604-3.333c0.855-1.344,0.094-3.99,0.203-6.061
	c0.008-0.268,0.139-0.694,0.096-0.905c-0.091-0.465-0.734-0.976-1.205-1.616c-0.895-1.181-1.183-2.291-2.024-3.635
	c-0.612-0.973-1.72-1.478-0.908-2.928c-4.137-6.367-4.562-16.441-8.787-22.719c0.313-1.735-0.783-2.817-1.515-3.838
	c0.449-2.366-0.398-4.813-0.198-7.168c0.024-0.321,0.211-0.676,0.198-1.008c-0.032-1.263-0.497-2.473-0.505-3.736
	c-0.019-4.559,0.906-8.918,1.416-13.33c1.295-0.825,1.093-3.141,1.819-4.538c0.278-0.296-0.333-0.267-0.203-0.71
	c1.239-0.796,0.74-1.975,0.905-3.737c0.227-2.315,0.734-4.235,0.609-7.066c-0.053-1.187-0.475-2.311-0.507-3.539
	c-0.043-1.932,0.884-4.375,1.012-6.558c0.056-1.007,0.016-1.979-0.102-3.031c-0.011-0.353,0.51-0.165,0.508-0.508
	c0.05-0.521-0.195-0.747-0.203-1.209c0.425-0.529,0.387-1.558,0-2.324c1.226-0.32,0.489-2.606,1.413-3.229
	c0.045-0.286-0.55,0.08-0.507-0.201C13.604,108.539,13.467,104.5,14.741,101.864z M93.801,46.127c0.363,0.024,0.7,0.024,0.604-0.402
	C94.089,45.744,94.009,46.007,93.801,46.127z M92.588,48.449c0.139-0.005,0.219,0.051,0.299,0.102
	c0.23-0.24,0.016-0.608-0.096-0.807c-0.149,0.057-0.529-0.117-0.513,0.102C92.823,47.792,92.62,48.099,92.588,48.449z"/>
</svg>
